<svg id="Group_5038" data-name="Group 5038" xmlns="http://www.w3.org/2000/svg" width="13.937" height="14.513" viewBox="0 0 13.937 14.513">
  <path id="Path_71" data-name="Path 71" d="M-650.542-5210.608a3.7,3.7,0,0,0,.8,1.939,4.146,4.146,0,0,0,2.595,1.593c.1.02.187.04.194.191a3.916,3.916,0,0,0,1.36,2.812,1.205,1.205,0,0,1,.419.793,1.066,1.066,0,0,1-.992,1.128l-2.4,0c-.095,0-.2-.024-.249.1-1.473-.033-2.947-.006-4.42-.016a.56.56,0,0,1-.392-.072c-.9,0-1.8,0-2.7-.012a.982.982,0,0,1-.915-.776,1.2,1.2,0,0,1,.47-1.239,3.689,3.689,0,0,0,1.1-1.722c.056-.165.091-.338.136-.506.043-.074,0-.162.035-.236l.01-.128c.051-.12-.007-.251.035-.371.007-.732.018-1.464.019-2.2a2.573,2.573,0,0,1,.152-.75,4.132,4.132,0,0,1,1.124-1.812,4.24,4.24,0,0,1,2.663-1.151,2.112,2.112,0,0,1,.541,0c.176.025.353.049.529.076.124.02.169.061.108.2a2.347,2.347,0,0,0-.23.9c-.049.1.007.221-.035.327a2.291,2.291,0,0,0,0,.593C-650.536-5210.833-650.587-5210.716-650.542-5210.608Z" transform="translate(657.263 5214.251)" fill="#fec007"/>
  <path id="Path_72" data-name="Path 72" d="M-481.323-5239.387h.69c.078.039.168,0,.246.036a4.423,4.423,0,0,1,1.062.456,3.07,3.07,0,0,1,1.352,2.182c.033.078-.006.165.033.242v.195c-.039.076,0,.163-.032.24a2.964,2.964,0,0,1-1.644,2.367,2.957,2.957,0,0,1-3.254-.332,2.817,2.817,0,0,1-1.109-1.853c-.038-.092.01-.193-.034-.285v-.469c.043-.093-.005-.2.035-.288a3.084,3.084,0,0,1,.848-1.635,2.929,2.929,0,0,1,1.329-.757l.235-.065C-481.488-5239.39-481.4-5239.348-481.323-5239.387Z" transform="translate(491.877 5239.387)" fill="#f34336"/>
  <path id="Path_73" data-name="Path 73" d="M-577.169-4972.762q2.283,0,4.566,0c.085,0,.205-.061.245.085a2.378,2.378,0,0,1-1.608,2.186c-.085.027-.169.06-.254.089s-.165,0-.24.038a4,4,0,0,1-1.018-.087,2.419,2.419,0,0,1-1.206-.833A2.115,2.115,0,0,1-577.169-4972.762Z" transform="translate(580.807 4984.874)" fill="#fe9f00"/>
</svg>
